# xmcd CD database file
#
# Track frame offsets:
#	150
#	12402
#	41797
#	64160
#	95357
#	118325
#	145125
#	165812
#	186347
#	206327
#	231997
#
# Disc length: 3331 seconds
#
# Revision: 0
# Processed by: cddbd v1.5.1PL0 Copyright (c) Steve Scherf et al.
# Submitted via: CDex 1.51
#
DISCID=970d010b
DTITLE=YOSHIO_SUZUKI - MOON_AND_BREEZE
DYEAR=2004
DGENRE=Jazz
TTITLE0=THEME FOR CHURAUMI
TTITLE1=MOON AND BREEZE
TTITLE2=PANTANAL
TTITLE3=WINGS
TTITLE4=EASTERN TOWN
TTITLE5=FALLING SUMMER
TTITLE6=EVENING IVORY
TTITLE7=PASSIONATE LADY
TTITLE8=KOMA
TTITLE9=ON AUTUMN LAKE
TTITLE10=IN HTE CRADLE
EXTD=YEAR: 2004
EXTT0=
EXTT1=
EXTT2=
EXTT3=
EXTT4=
EXTT5=
EXTT6=
EXTT7=
EXTT8=
EXTT9=
EXTT10=
PLAYORDER=
